<svg width="25" height="24" viewBox="0 0 25 24" fill="none" xmlns="http://www.w3.org/2000/svg">
<path d="M10.6461 3.24812C10.9433 2.51616 11.6614 2 12.5 2C13.3386 2 14.0567 2.51616 14.3539 3.24812C17.3202 4.06072 19.5 6.77579 19.5 10V14.6972L21.3321 17.4453C21.5366 17.7522 21.5557 18.1467 21.3817 18.4719C21.2077 18.797 20.8688 19 20.5 19H15.9646C15.7219 20.6961 14.2632 22 12.5 22C10.7368 22 9.27806 20.6961 9.03545 19H4.5C4.13121 19 3.79235 18.797 3.61833 18.4719C3.44431 18.1467 3.46338 17.7522 3.66795 17.4453L5.5 14.6972V10C5.5 6.77579 7.67983 4.06072 10.6461 3.24812ZM11.0854 19C11.2913 19.5826 11.8469 20 12.5 20C13.1531 20 13.7087 19.5826 13.9146 19H11.0854ZM12.5 5C9.73858 5 7.5 7.23858 7.5 10V15C7.5 15.1974 7.44156 15.3904 7.33205 15.5547L6.36852 17H18.6315L17.668 15.5547C17.5584 15.3904 17.5 15.1974 17.5 15V10C17.5 7.23858 15.2614 5 12.5 5Z" fill="#0D0D0D"/>
</svg>
